<mxfile host="app.diagrams.net" agent="Mozilla/5.0 (Windows NT 10.0; Win64; x64; rv:129.0) Gecko/20100101 Firefox/129.0" version="24.7.7">
  <diagram name="Página-1" id="th8MONXJvBTsa7bY0xBk">
    <mxGraphModel dx="1408" dy="766" grid="1" gridSize="10" guides="1" tooltips="1" connect="1" arrows="1" fold="1" page="1" pageScale="1" pageWidth="827" pageHeight="1169" math="0" shadow="0">
      <root>
        <mxCell id="0" />
        <mxCell id="1" parent="0" />
        <mxCell id="RPlor50CulLL3z-TC6Pw-5" value="OS" style="swimlane;fontStyle=1;align=center;verticalAlign=top;childLayout=stackLayout;horizontal=1;startSize=26;horizontalStack=0;resizeParent=1;resizeParentMax=0;resizeLast=0;collapsible=1;marginBottom=0;whiteSpace=wrap;html=1;" vertex="1" parent="1">
          <mxGeometry x="220" y="350" width="160" height="242" as="geometry" />
        </mxCell>
        <mxCell id="RPlor50CulLL3z-TC6Pw-6" value="&lt;div&gt;+ numero : int&lt;br&gt;&lt;br&gt;&lt;/div&gt;&lt;div&gt;&lt;br&gt;&lt;/div&gt;" style="text;strokeColor=none;fillColor=none;align=left;verticalAlign=top;spacingLeft=4;spacingRight=4;overflow=hidden;rotatable=0;points=[[0,0.5],[1,0.5]];portConstraint=eastwest;whiteSpace=wrap;html=1;" vertex="1" parent="RPlor50CulLL3z-TC6Pw-5">
          <mxGeometry y="26" width="160" height="26" as="geometry" />
        </mxCell>
        <mxCell id="RPlor50CulLL3z-TC6Pw-9" value="&lt;div&gt;+ servico: string&lt;br&gt;&lt;br&gt;&lt;/div&gt;&lt;div&gt;&lt;br&gt;&lt;/div&gt;" style="text;strokeColor=none;fillColor=none;align=left;verticalAlign=top;spacingLeft=4;spacingRight=4;overflow=hidden;rotatable=0;points=[[0,0.5],[1,0.5]];portConstraint=eastwest;whiteSpace=wrap;html=1;" vertex="1" parent="RPlor50CulLL3z-TC6Pw-5">
          <mxGeometry y="52" width="160" height="26" as="geometry" />
        </mxCell>
        <mxCell id="RPlor50CulLL3z-TC6Pw-11" value="&lt;div&gt;+ contratante : Cliente&lt;br&gt;&lt;br&gt;&lt;/div&gt;&lt;div&gt;&lt;br&gt;&lt;/div&gt;" style="text;strokeColor=none;fillColor=none;align=left;verticalAlign=top;spacingLeft=4;spacingRight=4;overflow=hidden;rotatable=0;points=[[0,0.5],[1,0.5]];portConstraint=eastwest;whiteSpace=wrap;html=1;" vertex="1" parent="RPlor50CulLL3z-TC6Pw-5">
          <mxGeometry y="78" width="160" height="26" as="geometry" />
        </mxCell>
        <mxCell id="RPlor50CulLL3z-TC6Pw-12" value="&lt;div&gt;+ valor : double&lt;/div&gt;&lt;div&gt;&lt;br&gt;&lt;/div&gt;&lt;div&gt;&lt;br&gt;&lt;/div&gt;" style="text;strokeColor=none;fillColor=none;align=left;verticalAlign=top;spacingLeft=4;spacingRight=4;overflow=hidden;rotatable=0;points=[[0,0.5],[1,0.5]];portConstraint=eastwest;whiteSpace=wrap;html=1;" vertex="1" parent="RPlor50CulLL3z-TC6Pw-5">
          <mxGeometry y="104" width="160" height="26" as="geometry" />
        </mxCell>
        <mxCell id="RPlor50CulLL3z-TC6Pw-10" value="&lt;div&gt;+ dataDeExecucao : date&lt;br&gt;&lt;br&gt;&lt;/div&gt;&lt;div&gt;&lt;br&gt;&lt;/div&gt;" style="text;strokeColor=none;fillColor=none;align=left;verticalAlign=top;spacingLeft=4;spacingRight=4;overflow=hidden;rotatable=0;points=[[0,0.5],[1,0.5]];portConstraint=eastwest;whiteSpace=wrap;html=1;" vertex="1" parent="RPlor50CulLL3z-TC6Pw-5">
          <mxGeometry y="130" width="160" height="26" as="geometry" />
        </mxCell>
        <mxCell id="RPlor50CulLL3z-TC6Pw-7" value="" style="line;strokeWidth=1;fillColor=none;align=left;verticalAlign=middle;spacingTop=-1;spacingLeft=3;spacingRight=3;rotatable=0;labelPosition=right;points=[];portConstraint=eastwest;strokeColor=inherit;" vertex="1" parent="RPlor50CulLL3z-TC6Pw-5">
          <mxGeometry y="156" width="160" height="8" as="geometry" />
        </mxCell>
        <mxCell id="RPlor50CulLL3z-TC6Pw-8" value="+ deleteOs(): void" style="text;strokeColor=none;fillColor=none;align=left;verticalAlign=top;spacingLeft=4;spacingRight=4;overflow=hidden;rotatable=0;points=[[0,0.5],[1,0.5]];portConstraint=eastwest;whiteSpace=wrap;html=1;" vertex="1" parent="RPlor50CulLL3z-TC6Pw-5">
          <mxGeometry y="164" width="160" height="26" as="geometry" />
        </mxCell>
        <mxCell id="RPlor50CulLL3z-TC6Pw-13" value="+ addOs(): void" style="text;strokeColor=none;fillColor=none;align=left;verticalAlign=top;spacingLeft=4;spacingRight=4;overflow=hidden;rotatable=0;points=[[0,0.5],[1,0.5]];portConstraint=eastwest;whiteSpace=wrap;html=1;" vertex="1" parent="RPlor50CulLL3z-TC6Pw-5">
          <mxGeometry y="190" width="160" height="26" as="geometry" />
        </mxCell>
        <mxCell id="RPlor50CulLL3z-TC6Pw-14" value="+ editOs(): void" style="text;strokeColor=none;fillColor=none;align=left;verticalAlign=top;spacingLeft=4;spacingRight=4;overflow=hidden;rotatable=0;points=[[0,0.5],[1,0.5]];portConstraint=eastwest;whiteSpace=wrap;html=1;" vertex="1" parent="RPlor50CulLL3z-TC6Pw-5">
          <mxGeometry y="216" width="160" height="26" as="geometry" />
        </mxCell>
        <mxCell id="RPlor50CulLL3z-TC6Pw-15" value="&lt;h1 style=&quot;margin-top: 0px; font-size: 10px;&quot;&gt;Service order manager&lt;br style=&quot;font-size: 10px;&quot;&gt;&lt;/h1&gt;&lt;p style=&quot;font-size: 10px;&quot;&gt;A XPTO Orçamentos Ltda. é uma empresa especializada em prestação de serviços para diversas áreas do mercado. A empresa XPTO possui uma equipe altamente especializada para execução dos diversos serviços que oferece a todas as empresas as quais possui contrato. Para cada serviço prestado pela empresa XPTO, uma Ordem de Serviço (OS) é emitida manualmente e encaminhada ao endereço da empresa contratante.&lt;br style=&quot;font-size: 10px;&quot;&gt;&lt;br style=&quot;font-size: 10px;&quot;&gt;Para melhorar o gerenciamento de todas essas Ordens de Serviço, a XPTO contratou sua empresa para desenvolver um sistema de cadastro dessas Ordens de Serviço (OS).&lt;br style=&quot;font-size: 10px;&quot;&gt;&lt;br style=&quot;font-size: 10px;&quot;&gt;O sistema deverá ter, em sua tela principal, a listagem de todas as OS cadastradas no sistema, além de um botão para criação de uma nova OS.&lt;br style=&quot;font-size: 10px;&quot;&gt;&lt;br style=&quot;font-size: 10px;&quot;&gt;Para cada item da listagem, deverá haver um botão para edição e um botão para exclusão.&lt;br style=&quot;font-size: 10px;&quot;&gt;&lt;br style=&quot;font-size: 10px;&quot;&gt;Ao editar um item da listagem, deverá ser aberta a tela de cadastro com as informações já preenchidas da OS.&lt;/p&gt;" style="text;html=1;whiteSpace=wrap;overflow=hidden;rounded=0;fontSize=10;" vertex="1" parent="1">
          <mxGeometry x="30" y="20" width="390" height="260" as="geometry" />
        </mxCell>
      </root>
    </mxGraphModel>
  </diagram>
</mxfile>
